{
	"asset":{
		"generator":"Khronos glTF Blender I/O v4.3.47",
		"version":"2.0"
	},
	"scene":0,
	"scenes":[
		{
			"name":"Scene",
			"nodes":[
				0
			]
		}
	],
	"nodes":[
		{
			"mesh":0,
			"name":"Icosphere.001",
			"scale":[
				20,
				20,
				20
			]
		}
	],
	"meshes":[
		{
			"name":"Icosphere.002",
			"primitives":[
				{
					"attributes":{
						"POSITION":0,
						"NORMAL":1,
						"TEXCOORD_0":2
					},
					"indices":3
				}
			]
		}
	],
	"accessors":[
		{
			"bufferView":0,
			"componentType":5126,
			"count":10593,
			"max":[
				1,
				1,
				0.9999999403953552
			],
			"min":[
				-0.9999999403953552,
				-1,
				-0.9999999403953552
			],
			"type":"VEC3"
		},
		{
			"bufferView":1,
			"componentType":5126,
			"count":10593,
			"type":"VEC3"
		},
		{
			"bufferView":2,
			"componentType":5126,
			"count":10593,
			"type":"VEC2"
		},
		{
			"bufferView":3,
			"componentType":5123,
			"count":61440,
			"type":"SCALAR"
		}
	],
	"bufferViews":[
		{
			"buffer":0,
			"byteLength":127116,
			"byteOffset":0,
			"target":34962
		},
		{
			"buffer":0,
			"byteLength":127116,
			"byteOffset":127116,
			"target":34962
		},
		{
			"buffer":0,
			"byteLength":84744,
			"byteOffset":254232,
			"target":34962
		},
		{
			"buffer":0,
			"byteLength":122880,
			"byteOffset":338976,
			"target":34963
		}
	],
	"buffers":[
		{
			"byteLength":461856,
			"uri":"largehead.bin"
		}
	]
}
