{
	"asset":{
		"generator":"Khronos glTF Blender I/O v4.3.47",
		"version":"2.0"
	},
	"scene":0,
	"scenes":[
		{
			"name":"Scene",
			"nodes":[
				0
			]
		}
	],
	"nodes":[
		{
			"mesh":0,
			"name":"Cube"
		}
	],
	"materials":[
		{
			"doubleSided":true,
			"name":"diff",
			"pbrMetallicRoughness":{
				"baseColorTexture":{
					"index":0
				},
				"metallicFactor":0,
				"roughnessFactor":0.5
			}
		}
	],
	"meshes":[
		{
			"name":"Cube",
			"primitives":[
				{
					"attributes":{
						"POSITION":0,
						"NORMAL":1,
						"TEXCOORD_0":2
					},
					"indices":3,
					"material":0
				}
			]
		}
	],
	"textures":[
		{
			"sampler":0,
			"source":0
		}
	],
	"images":[
		{
			"mimeType":"image/png",
			"name":"diff",
			"uri":"Textures/diff.png"
		}
	],
	"accessors":[
		{
			"bufferView":0,
			"componentType":5126,
			"count":17202,
			"max":[
				0.11654472351074219,
				1,
				1
			],
			"min":[
				-0.39348670840263367,
				-1,
				-1
			],
			"type":"VEC3"
		},
		{
			"bufferView":1,
			"componentType":5126,
			"count":17202,
			"type":"VEC3"
		},
		{
			"bufferView":2,
			"componentType":5126,
			"count":17202,
			"type":"VEC2"
		},
		{
			"bufferView":3,
			"componentType":5123,
			"count":99984,
			"type":"SCALAR"
		}
	],
	"bufferViews":[
		{
			"buffer":0,
			"byteLength":206424,
			"byteOffset":0,
			"target":34962
		},
		{
			"buffer":0,
			"byteLength":206424,
			"byteOffset":206424,
			"target":34962
		},
		{
			"buffer":0,
			"byteLength":137616,
			"byteOffset":412848,
			"target":34962
		},
		{
			"buffer":0,
			"byteLength":199968,
			"byteOffset":550464,
			"target":34963
		}
	],
	"samplers":[
		{
			"magFilter":9729,
			"minFilter":9987
		}
	],
	"buffers":[
		{
			"byteLength":750432,
			"uri":"patch.bin"
		}
	]
}
