{
	"asset":{
		"generator":"Khronos glTF Blender I/O v4.3.47",
		"version":"2.0"
	},
	"scene":0,
	"scenes":[
		{
			"name":"Scene",
			"nodes":[
				0
			]
		}
	],
	"nodes":[
		{
			"mesh":0,
			"name":"Icosphere",
			"rotation":[
				0.10452849417924881,
				0,
				0,
				0.994521975517273
			],
			"scale":[
				5,
				5,
				5
			]
		}
	],
	"materials":[
		{
			"doubleSided":true,
			"name":"diff.003",
			"pbrMetallicRoughness":{
				"baseColorTexture":{
					"index":0
				},
				"metallicFactor":0,
				"roughnessFactor":0.5
			}
		}
	],
	"meshes":[
		{
			"name":"Icosphere.001",
			"primitives":[
				{
					"attributes":{
						"POSITION":0,
						"NORMAL":1,
						"TEXCOORD_0":2
					},
					"indices":3,
					"material":0
				}
			]
		}
	],
	"textures":[
		{
			"sampler":0,
			"source":0
		}
	],
	"images":[
		{
			"mimeType":"image/png",
			"name":"diff.002",
			"uri":"../bighead/Textures/diff.png"
		}
	],
	"accessors":[
		{
			"bufferView":0,
			"componentType":5126,
			"count":263,
			"max":[
				5.0010666847229,
				4.9907989501953125,
				4.999731063842773
			],
			"min":[
				-5.001474380493164,
				-4.990798473358154,
				-5.013463020324707
			],
			"type":"VEC3"
		},
		{
			"bufferView":1,
			"componentType":5126,
			"count":263,
			"type":"VEC3"
		},
		{
			"bufferView":2,
			"componentType":5126,
			"count":263,
			"type":"VEC2"
		},
		{
			"bufferView":3,
			"componentType":5123,
			"count":1218,
			"type":"SCALAR"
		}
	],
	"bufferViews":[
		{
			"buffer":0,
			"byteLength":3156,
			"byteOffset":0,
			"target":34962
		},
		{
			"buffer":0,
			"byteLength":3156,
			"byteOffset":3156,
			"target":34962
		},
		{
			"buffer":0,
			"byteLength":2104,
			"byteOffset":6312,
			"target":34962
		},
		{
			"buffer":0,
			"byteLength":2436,
			"byteOffset":8416,
			"target":34963
		}
	],
	"samplers":[
		{
			"magFilter":9729,
			"minFilter":9987
		}
	],
	"buffers":[
		{
			"byteLength":10852,
			"uri":"guidehead.bin"
		}
	]
}
